<svg width="24" height="24" viewBox="0 0 24 24" fill="none" xmlns="http://www.w3.org/2000/svg">
<path d="M16.8 24H7.08004C5.10004 24 3.54004 22.38 3.54004 20.46V9.6C3.54004 9.24 3.78004 9 4.14004 9C4.50004 9 4.74004 9.24 4.74004 9.6V20.46C4.74004 21.78 5.82004 22.8 7.08004 22.8H16.8C18.12 22.8 19.14 21.72 19.14 20.46V9.6C19.14 9.24 19.38 9 19.74 9C20.1 9 20.34 9.24 20.34 9.6V20.46C20.34 22.38 18.72 24 16.8 24Z" fill="#A7A7A7"/>
<path d="M19.9799 2.94H15.4199C15.1199 1.26 13.6799 0 11.9399 0C10.1999 0 8.75994 1.26 8.45994 2.94H3.89994C2.51994 2.94 1.43994 4.02 1.43994 5.4C1.43994 6.78 2.51994 7.8 3.89994 7.8H20.0399C21.4199 7.8 22.4999 6.72 22.4999 5.34C22.4999 3.96 21.3599 2.94 19.9799 2.94ZM11.9399 1.2C13.0199 1.2 13.9199 1.92 14.1599 2.94H9.65994C9.95994 1.92 10.8599 1.2 11.9399 1.2ZM19.9799 6.6H3.89994C3.23994 6.6 2.63994 6.06 2.63994 5.34C2.63994 4.68 3.17994 4.08 3.89994 4.08H20.0399C20.6999 4.08 21.2999 4.62 21.2999 5.34C21.2399 6.06 20.6999 6.6 19.9799 6.6Z" fill="#A7A7A7"/>
<path d="M7.74014 21.0598C7.38014 21.0598 7.14014 20.8198 7.14014 20.4598V10.4398C7.14014 10.0798 7.38014 9.83984 7.74014 9.83984C8.10014 9.83984 8.34014 10.0798 8.34014 10.4398V20.4598C8.34014 20.7598 8.04014 21.0598 7.74014 21.0598Z" fill="#A7A7A7"/>
<path d="M16.14 21.0598C15.78 21.0598 15.54 20.8198 15.54 20.4598V10.4398C15.54 10.0798 15.78 9.83984 16.14 9.83984C16.5 9.83984 16.74 10.0798 16.74 10.4398V20.4598C16.74 20.7598 16.44 21.0598 16.14 21.0598Z" fill="#A7A7A7"/>
<path d="M11.9398 21.0598C11.5798 21.0598 11.3398 20.8198 11.3398 20.4598V10.4398C11.3398 10.0798 11.5798 9.83984 11.9398 9.83984C12.2998 9.83984 12.5398 10.0798 12.5398 10.4398V20.4598C12.5398 20.7598 12.2398 21.0598 11.9398 21.0598Z" fill="#A7A7A7"/>
</svg>
